<svg id="Capa_1" enable-background="new 0 0 512.002 512.002" height="512" viewBox="0 0 512.002 512.002" width="512" xmlns="http://www.w3.org/2000/svg"><path d="m384.998 254.014c-33.925 0-65.818-13.211-89.806-37.199s-37.199-55.882-37.199-89.807c0-33.924 13.211-65.818 37.199-89.806 23.987-23.988 55.881-37.2 89.806-37.2 33.924 0 65.817 13.211 89.805 37.2 23.988 23.988 37.199 55.882 37.199 89.806 0 33.925-13.211 65.819-37.199 89.807-23.987 23.988-55.881 37.199-89.805 37.199z" fill="#787465"/><path d="m295.193 216.814c23.987 23.988 55.881 37.199 89.806 37.199 33.924 0 65.817-13.211 89.805-37.199s37.199-55.882 37.199-89.807c0-33.924-13.211-65.818-37.199-89.806l-179.613 179.612c.001.001.001.001.002.001z" fill="#4c4a40"/><path d="m471.206 228.324c-3.839 0-7.678-1.464-10.606-4.394l-172.529-172.532c-5.858-5.858-5.858-15.355 0-21.213s15.356-5.858 21.213 0l172.529 172.532c5.858 5.858 5.858 15.355 0 21.213-2.929 2.929-6.769 4.394-10.607 4.394z" fill="#b0ac9b"/><path d="m481.813 202.717-86.262-86.263-21.213 21.213 86.262 86.263c2.929 2.929 6.768 4.394 10.607 4.394 3.838 0 7.678-1.465 10.606-4.394 5.858-5.857 5.858-15.355 0-21.213z" fill="#787465"/><path d="m15 512c-3.839 0-7.677-1.464-10.606-4.393-5.858-5.858-5.858-15.355 0-21.213l29.062-29.063c5.858-5.858 15.355-5.858 21.213 0s5.858 15.355 0 21.213l-29.062 29.063c-2.929 2.928-6.768 4.393-10.607 4.393z" fill="#4c4a40"/><path d="m54.671 457.333-50.275 50.276c2.929 2.927 6.766 4.391 10.604 4.391 3.839 0 7.678-1.465 10.607-4.394l29.062-29.063c5.856-5.856 5.857-15.352.002-21.21z" fill="#2e2c27"/><path d="m68.327 492.989c-13.172 0-25.556-5.129-34.87-14.444l-.002-.002c-19.228-19.227-19.228-50.512 0-69.74l40.442-40.442c2.813-2.813 6.628-4.394 10.606-4.394 3.979 0 7.793 1.581 10.607 4.394l48.528 48.529c5.857 5.858 5.857 15.355-.001 21.213l-40.441 40.442c-9.313 9.314-21.697 14.444-34.869 14.444z" fill="#a19d8d"/><path d="m143.638 416.89-24.262-24.262-85.919 85.918c9.314 9.314 21.697 14.442 34.869 14.442s25.556-5.129 34.87-14.444l40.441-40.442c5.859-5.857 5.859-15.354.001-21.212z" fill="#787465"/><path d="m257.998 128.172-184.688 215.067c-11.852 13.801-11.059 34.689 1.804 47.552l46.096 46.097c6.77 6.77 15.76 10.196 24.773 10.196 8.111 0 16.242-2.777 22.779-8.392l215.059-184.685z" fill="#ffcf2c"/><path d="m98.163 413.841 23.047 23.047c6.77 6.77 15.76 10.196 24.773 10.196 8.111 0 16.242-2.777 22.779-8.392l215.059-184.685-62.909-62.915z" fill="#ff9300"/><path d="m230.801 296.198c-3.839 0-7.678-1.464-10.606-4.394-5.858-5.858-5.858-15.355 0-21.213l23.254-23.254c5.857-5.858 15.355-5.858 21.213 0s5.858 15.355 0 21.213l-23.254 23.254c-2.929 2.93-6.768 4.394-10.607 4.394z" fill="#696453"/><path d="m264.664 247.34-44.467 44.467c2.928 2.927 6.766 4.391 10.604 4.391 3.839 0 7.678-1.464 10.606-4.394l23.254-23.254c5.858-5.856 5.859-15.352.003-21.21z" fill="#2e2c27"/></svg>