<svg id="Layer_1" enable-background="new 0 0 512.678 512.678" height="512" viewBox="0 0 512.678 512.678" width="512" xmlns="http://www.w3.org/2000/svg"><g><path d="m239.163 458.177c-.021-3.724-3.754-7.458-7.542-7.458-3.739.021-8.424.04-12.252.045v-49.079c0-9.697-15-9.697-15 0v56.534c0 3.655 2.636 6.778 6.239 7.394.534.091 14.647.143 21.097.106 4.142-.023 7.481-3.399 7.458-7.542z"/><path d="m371.025 394.185h-16.42c-4.143 0-7.5 3.357-7.5 7.5v26.055.042 30.484c0 3.733 3.733 7.5 7.533 7.5 0 0 15.094-.067 19.254-.067 12.525 0 22.716-10.196 22.716-22.729 0-7.007-3.187-13.282-8.185-17.455 1.958-3.144 3.109-6.84 3.109-10.81-.001-11.315-9.2-20.52-20.507-20.52zm0 15c3.036 0 5.507 2.476 5.507 5.52s-2.471 5.52-5.507 5.52c-1.22 0-3.532.007-6.043.016h-2.877v-11.055h8.92zm2.867 41.514c-2.179 0-7.345.019-11.787.036v-15.484c.963-.004 1.945-.007 2.899-.011h8.888c4.255 0 7.716 3.468 7.716 7.729s-3.461 7.73-7.716 7.73z"/><path d="m152.232 465.766c7.895 0 14.984-2.6 20.502-7.519 1.082-.964 2.109-2.024 3.054-3.152 2.659-3.175 2.241-7.905-.935-10.565-3.175-2.658-7.905-2.242-10.565.935-.479.571-.994 1.104-1.534 1.586-2.767 2.466-6.306 3.716-10.521 3.716-11.449 0-20.764-9.326-20.764-20.79s9.314-20.791 20.764-20.791c4.16 0 8.172 1.226 11.6 3.545 8.033 5.434 16.436-6.991 8.404-12.426-5.92-4.003-12.837-6.119-20.004-6.119-19.72 0-35.764 16.056-35.764 35.791-.001 19.734 16.043 35.789 35.763 35.789z"/><path d="m273.494 394.185c-4.143 0-7.5 3.357-7.5 7.5v38.935c0 32.925 54.278 32.606 54.278-.041v-38.894c0-9.697-15-9.697-15 0v38.894c0 13.388-24.278 13.48-24.278.041v-38.935c0-4.142-3.357-7.5-7.5-7.5z"/><path d="m72.206 295.298c-3.135.977-5.27 3.878-5.27 7.161v56.476c0 9.697 15 9.697 15 0v-32.397l24.479 35.482c4.881 7.049 15.131 3.195 15.131-5.063l-.528-54.675c-.092-9.421-15.096-9.737-15 .145l.32 33.067-25.729-37.293c-1.863-2.703-5.265-3.876-8.403-2.903z"/><path d="m171.946 358.935v-56.581c0-9.697-15-9.697-15 0v56.581c0 9.698 15 9.698 15 0z"/><path d="m317.905 294.854c-4.143 0-7.5 3.357-7.5 7.5v56.581c0 9.697 15 9.697 15 0v-21.761h24.117v21.761c0 9.697 15 9.697 15 0v-56.581c0-9.697-15-9.697-15 0v19.82h-24.117v-19.82c0-4.142-3.357-7.5-7.5-7.5z"/><path d="m243.109 309.854c4.16 0 8.172 1.226 11.6 3.545 8.034 5.433 16.436-6.991 8.404-12.426-5.92-4.003-12.837-6.119-20.004-6.119-19.72 0-35.764 16.056-35.764 35.791 0 19.734 16.044 35.79 35.764 35.79 18.781 0 31.898-14.718 31.898-35.79 0-4.143-3.357-7.5-7.5-7.5h-16.91c-4.143 0-7.5 3.357-7.5 7.5s3.357 7.5 7.5 7.5h8.471c-1.869 7.11-6.693 13.29-15.959 13.29-11.449 0-20.764-9.326-20.764-20.79s9.314-20.791 20.764-20.791z"/><path d="m488.81 283.588c-8.236-21.653-28.167-35.645-50.778-35.645l-94.325.03c5.113-4.126 9.968-8.639 14.533-13.53 6.617-7.09-4.348-17.32-10.967-10.234-19.024 20.386-43.672 33.474-71.275 37.851-67.644 10.719-131.41-35.621-142.142-103.31-4.541-28.654 1.114-58.135 15.924-83.011 4.961-8.333-7.93-16.007-12.889-7.674-16.6 27.883-22.939 60.922-17.85 93.033 5.65 35.64 24.422 65.993 50.598 86.92 0 0-93.843.029-95.207.029-29.468 0-54.363 24.918-54.363 54.412v56.477c0 28.373 21.81 51.743 49.532 54.198v16.842c0 45.603 37.067 82.702 82.633 82.702l47.638-.018c9.472-.004 9.257-15-.006-15l-47.635.018c-37.291 0-67.63-30.371-67.63-67.702v-24.129c0-4.143-3.357-7.5-7.5-7.5h-2.666c-21.707 0-39.366-17.68-39.366-39.411v-56.476c0-21.363 18.026-39.412 39.363-39.412 1.365 0 118.278-.036 118.278-.036 19.321 10.012 41.094 15.591 63.769 15.591 22.254 0 44.515-5.366 64.273-15.621l117.282-.038c19.814 0 31.979 13.419 36.756 25.978 4.674 12.288 4.517 30-9.94 42.859-1.601 1.423-2.516 3.462-2.516 5.604v21.553c0 21.559-10.137 36.064-27.141 38.887-3.775.391-6.72 3.581-6.72 7.46v37.687c0 30.129-24.485 54.641-54.584 54.641l-131.354.038c-10.497.002-7.995 12.714.004 15l131.353-.038c38.367 0 69.582-31.24 69.582-69.641v-31.692c20.778-6.204 33.86-26.053 33.86-52.341v-18.329c14.863-14.964 19.283-36.497 11.476-57.022z"/><path d="m422.967 366.435c4.143 0 7.5-3.357 7.5-7.5v-49.081h8.172c9.697 0 9.697-15 0-15h-31.218c-9.697 0-9.697 15 0 15h8.046v49.081c0 4.143 3.357 7.5 7.5 7.5z"/><path d="m170.805 49.33c18.282-17.475 41.199-28.812 66.272-32.786 4.004-.635 7.993-1.063 11.96-1.304v31.52c-47.701 3.831-85.346 43.871-85.346 92.542 0 51.195 41.65 92.846 92.846 92.846s92.846-41.65 92.846-92.846c0-48.67-37.645-88.71-85.346-92.542v-31.523c56.873 3.447 105.893 46.031 115.182 104.616 4.313 27.205-.311 54.354-13.37 78.514-4.496 8.317 8.635 15.571 13.195 7.133 14.639-27.081 19.822-57.51 14.989-87.995-12.025-75.857-83.5-127.796-159.303-115.776-28.102 4.454-53.79 17.165-74.288 36.757-7.011 6.7 3.354 17.544 10.363 10.844zm96.742 12.919c5.615 8.777 10.129 20.793 13.197 34.589-16.141-1.744-32.535-1.721-48.669.075 2.955-13.674 7.352-25.605 12.912-34.595 7.475-1.117 15.079-1.133 22.56-.069zm66.836 77.052c0 3.596-.266 7.13-.74 10.598-8.681 5.754-20.712 10.382-34.583 13.524 1.685-16.096 1.64-32.432-.139-48.517 13.763 3.024 25.729 7.534 34.651 13.237.525 3.647.811 7.369.811 11.158zm-49.101.554c0 9.05-.556 17.901-1.612 26.335-17.895 2.438-36.231 2.492-54.142.204-2.326-17.879-2.348-36.194-.071-54.077 17.851-2.357 36.149-2.38 54.005-.078 1.186 8.863 1.82 18.169 1.82 27.616zm-106.59-.554c0-3.674.274-7.284.769-10.824 8.857-5.789 20.808-10.371 34.603-13.452-1.727 16.165-1.706 32.576.067 48.735-13.71-2.986-25.651-7.445-34.6-13.086-.546-3.714-.839-7.509-.839-11.373zm46.677-71.312c-3.836 9.202-6.885 19.809-9.019 31.291-11.547 2.218-22.178 5.377-31.348 9.347 7.803-18.129 22.303-32.712 40.367-40.638zm-40.183 102.395c9.186 3.875 19.791 6.952 31.276 9.102 2.173 11.484 5.267 22.069 9.15 31.238-18.04-7.842-32.545-22.32-40.426-40.34zm60.127 45.943c-5.642-8.927-10.109-20.841-13.12-34.543 16.213 1.738 32.682 1.697 48.884-.132-2.918 13.646-7.268 25.579-12.775 34.607-7.611 1.158-15.373 1.173-22.989.068zm42.552-5.785c3.802-9.214 6.821-19.816 8.928-31.283 11.567-2.245 22.198-5.439 31.356-9.449-7.763 18.153-22.239 32.765-40.284 40.732zm40.095-102.165c-9.202-3.921-19.85-7.035-31.391-9.213-2.201-11.548-5.334-22.172-9.269-31.359 18.17 7.848 32.772 22.424 40.66 40.572z"/></g></svg>