<svg id="Layer_1" enable-background="new 0 0 51 51" height="512" viewBox="0 0 51 51" width="512" xmlns="http://www.w3.org/2000/svg"><g><g><g><g><g><g><g><g enable-background="new"><g><path d="m23.00392 42.45967-.01244 1.66645-2.8838 1.67589.01243-1.66645z" fill="#a87648"/></g><g><path d="m20.12011 44.13556-.01243 1.66645-2.90198-1.67547.01243-1.66644z" fill="#b27e4b"/></g><g><path d="m23.00392 42.45967-2.88381 1.67589-2.90198-1.67546 2.8838-1.67589z" fill="#bc874d"/></g></g></g><g><g enable-background="new"><g><path d="m22.68161 38.5299-.01105 3.89727-2.5632 1.48957.01105-3.89727z" fill="#8c603e"/></g><g><path d="m20.11841 40.01947-.01105 3.89727-2.57935-1.48919.01104-3.89728z" fill="#a87648"/></g><g><path d="m22.68161 38.5299-2.5632 1.48957-2.57936-1.4892 2.5632-1.48956z" fill="#bc874d"/></g></g></g><g><g enable-background="new"><g><path d="m23.00392 29.68566-.01244 11.24962-2.8838 1.67588.01243-11.24961z" fill="#9e6e46"/></g><g><path d="m20.12011 31.36155-.01243 11.24961-2.90198-1.67546.01243-11.24961z" fill="#b27e4b"/></g><g><path d="m23.00392 29.68566-2.88381 1.67589-2.90198-1.67546 2.8838-1.67589z" fill="#bc874d"/></g></g></g></g><g><g><g enable-background="new"><g><path d="m7.93095 33.76147-.01243 1.66645-2.88381 1.67588.01243-1.66644z" fill="#a87648"/></g><g><path d="m5.04714 35.43736-.01243 1.66644-2.90198-1.67546.01243-1.66644z" fill="#b27e4b"/></g><g><path d="m7.93095 33.76147-2.88381 1.67589-2.90198-1.67546 2.8838-1.67589z" fill="#bc874d"/></g></g></g><g><g enable-background="new"><g><path d="m7.60864 29.8317-.01105 3.89727-2.5632 1.48957.01105-3.89727z" fill="#8c603e"/></g><g><path d="m5.04544 31.32127-.01105 3.89727-2.57935-1.48919.01105-3.89728z" fill="#a87648"/></g><g><path d="m7.60864 29.8317-2.5632 1.48957-2.57935-1.4892 2.56319-1.48957z" fill="#bc874d"/></g></g></g><g><g enable-background="new"><g><path d="m7.93095 24.21445-.01243 8.02263-2.88381 1.67588.01243-8.02263z" fill="#9e6e46"/></g><g><path d="m5.04714 25.89033-.01243 8.02263-2.90198-1.67546.01243-8.02263z" fill="#b27e4b"/></g><g><path d="m7.93095 24.21445-2.88381 1.67588-2.90198-1.67546 2.8838-1.67588z" fill="#bc874d"/></g></g></g></g></g><g><g><g><g enable-background="new"><g><path d="m36.9172 34.42518-.01243 1.66645-2.8838 1.67588.01243-1.66645z" fill="#a87648"/></g><g><path d="m34.0334 36.10106-.01243 1.66645-2.90198-1.67546.01243-1.66644z" fill="#b27e4b"/></g><g><path d="m36.9172 34.42518-2.8838 1.67588-2.90198-1.67545 2.8838-1.67589z" fill="#bc874d"/></g></g></g><g><g enable-background="new"><g><path d="m36.5949 30.49541-.01105 3.89727-2.5632 1.48957.01105-3.89728z" fill="#8c603e"/></g><g><path d="m34.0317 31.98497-.01105 3.89728-2.57936-1.4892.01105-3.89727z" fill="#a87648"/></g><g><path d="m36.5949 30.49541-2.5632 1.48956-2.57936-1.48919 2.5632-1.48957z" fill="#bc874d"/></g></g></g><g><g enable-background="new"><g><path d="m36.9172 21.65117-.01243 11.24961-2.8838 1.67589.01243-11.24962z" fill="#9e6e46"/></g><g><path d="m34.0334 23.32705-.01243 11.24962-2.90198-1.67546.01243-11.24962z" fill="#b27e4b"/></g><g><path d="m36.9172 21.65117-2.8838 1.67588-2.90198-1.67546 2.8838-1.67588z" fill="#bc874d"/></g></g></g></g><g><g><g enable-background="new"><g><path d="m21.84423 25.72698-.01243 1.66644-2.8838 1.67589.01243-1.66645z" fill="#a87648"/></g><g><path d="m18.96043 27.40286-.01243 1.66645-2.90198-1.67546.01243-1.66645z" fill="#b27e4b"/></g><g><path d="m21.84423 25.72698-2.8838 1.67588-2.90198-1.67546 2.8838-1.67588z" fill="#bc874d"/></g></g></g><g><g enable-background="new"><g><path d="m21.52193 21.7972-.01105 3.89728-2.5632 1.48957.01105-3.89728z" fill="#8c603e"/></g><g><path d="m18.95873 23.28677-.01105 3.89728-2.57936-1.4892.01105-3.89727z" fill="#a87648"/></g><g><path d="m21.52193 21.7972-2.5632 1.48957-2.57936-1.48919 2.5632-1.48957z" fill="#bc874d"/></g></g></g><g><g enable-background="new"><g><path d="m21.84423 16.17995-.01243 8.02263-2.8838 1.67589.01243-8.02264z" fill="#9e6e46"/></g><g><path d="m18.96043 17.85583-.01243 8.02264-2.90198-1.67546.01243-8.02263z" fill="#b27e4b"/></g><g><path d="m21.84423 16.17995-2.8838 1.67588-2.90198-1.67545 2.8838-1.67589z" fill="#bc874d"/></g></g></g></g></g><g><g><g><g enable-background="new"><g><path d="m49.22529 27.31765-.01243 1.66644-2.8838 1.67589.01243-1.66645z" fill="#a87648"/></g><g><path d="m46.34149 28.99353-.01243 1.66645-2.90199-1.67546.01244-1.66645z" fill="#b27e4b"/></g><g><path d="m49.22529 27.31765-2.8838 1.67588-2.90198-1.67546 2.8838-1.67588z" fill="#bc874d"/></g></g></g><g><g enable-background="new"><g><path d="m48.90298 23.38787-.01104 3.89727-2.5632 1.48957.01105-3.89727z" fill="#8c603e"/></g><g><path d="m46.33979 24.87744-.01105 3.89727-2.57936-1.48919.01105-3.89727z" fill="#a87648"/></g><g><path d="m48.90298 23.38787-2.56319 1.48957-2.57936-1.48919 2.5632-1.48957z" fill="#bc874d"/></g></g></g><g><g enable-background="new"><g><path d="m49.22529 17.80074-.01243 7.99251-2.8838 1.67588.01243-7.99251z" fill="#9e6e46"/></g><g><path d="m46.34149 19.47662-.01243 7.99251-2.90199-1.67546.01244-7.99251z" fill="#b27e4b"/></g><g><path d="m49.22529 17.80074-2.8838 1.67588-2.90198-1.67546 2.8838-1.67588z" fill="#bc874d"/></g></g></g></g><g><g><g enable-background="new"><g><path d="m34.15232 18.61944-.01243 1.66645-2.8838 1.67588.01243-1.66644z" fill="#a87648"/></g><g><path d="m31.26852 20.29533-.01243 1.66644-2.90198-1.67546.01243-1.66644z" fill="#b27e4b"/></g><g><path d="m34.15232 18.61944-2.8838 1.67589-2.90198-1.67546 2.8838-1.67589z" fill="#bc874d"/></g></g></g><g><g enable-background="new"><g><path d="m33.83002 14.68967-.01105 3.89727-2.5632 1.48957.01105-3.89727z" fill="#8c603e"/></g><g><path d="m31.26682 16.17924-.01105 3.89727-2.57936-1.48919.01105-3.89727z" fill="#a87648"/></g><g><path d="m33.83002 14.68967-2.5632 1.48957-2.57936-1.48919 2.5632-1.48957z" fill="#bc874d"/></g></g></g><g><g enable-background="new"><g><path d="m34.15232 9.07242-.01243 8.02263-2.8838 1.67588.01243-8.02263z" fill="#9e6e46"/></g><g><path d="m31.26852 10.7483-.01243 8.02263-2.90198-1.67546.01243-8.02263z" fill="#b27e4b"/></g><g><path d="m34.15232 9.07242-2.8838 1.67588-2.90198-1.67546 2.8838-1.67588z" fill="#bc874d"/></g></g></g></g></g><g><g><path d="m49.49167 15.99499v4.14572c0 .20417-.12252.38802-.38802.53099l-28.01891 16.27627c-.49011.30638-1.30704.30638-1.81759 0l-17.37913-10.02714c-.26549-.14297-.38802-.34727-.38802-.53099v-4.16604c0 .18373.14297.3879.38802.53087l17.39958 10.0477c.51055.28581 1.30704.28581 1.81759 0l28.01891-16.29683c.24504-.14297.36757-.3267.36757-.51055z" fill="#a87648"/></g><g><path d="m49.1193 15.45901c.50853.2936.49819.76786.00594 1.05392l-28.0195 16.28316c-.5052.29359-1.31097.2936-1.8195 0l-17.39364-10.04223c-.50853-.2936-.51115-.76033-.00594-1.05392l28.0195-16.28316c.49225-.28606 1.31097-.2936 1.8195 0z" fill="#bc874d"/></g><path d="m20.25343 32.92581c-.09293 0-.18227-.02202-.25156-.06195l-18.10305-10.40143c-.0872-.05031-.13715-.12641-.13733-.20913-.00018-.08128.04834-.1563.13321-.20536l28.52944-16.5796c.06822-.03975.15685-.06159.24995-.06159.09293 0 .18173.02184.25031.06141l18.10305 10.40125c.0863.04995.13589.12587.13589.20841.00018.08236-.0487.1581-.13428.20787l-28.52962 16.57961c-.06732.03903-.1547.06051-.24601.06051z" fill="#30b265"/><g><g><path d="m18.08213 13.25486c.26076.15055.27517.39899.00315.55708l-1.7488 1.01629c-.25908.15056-.70098.15055-.96174 0l-.83446-.48178 2.70739-1.57336z" fill="#ecf0f1"/></g><path d="m15.57978 14.54048-13.05456 7.58646c-.10346.06021-.10296.16042.00124.22062l.27821.16067 12.6154-7.33125c.2228-.12947.29499-.41718.15971-.6365z" fill="#32a560"/><path d="m48.48055 15.8681-17.45904-10.07999c-.1042-.0602-.27734-.0602-.38091 0l-12.78787 7.43148c.12012.08565.22314.25536.23351.40801l12.55436-7.29579c.10358-.06008.27671-.06008.38091 0l17.18082 9.91932.27946-.16242c.10358-.0602.10296-.16053-.00124-.22061z" fill="#32a560"/><path d="m20.36641 32.42756 27.83593-16.17642-17.18083-9.91933c-.1042-.06008-.27734-.06008-.38092 0l-27.83592 16.17643 17.18082 9.91932c.1042.0602.27746.0602.38092 0z" fill="#2ecc71"/></g><g><g><path d="m36.46676 23.86924-2.70739 1.57336-.83447-.48178c-.26081-.15058-.26223-.40652-.00314-.55708l1.74879-1.01629c.27203-.15808.70094-.15058.96174 0z" fill="#ecf0f1"/></g><g><path d="m22.2044 32.15761-1.10109.63988c-.5052.29359-1.31096.2936-1.81949 0l-1.13436-.65492 1.21768-.70764c.42748-.24842 1.15525-.24844 1.59856.00751z" fill="#ecf0f1"/></g><g><path d="m4.25005 21.79166c.43027.24842.40658.65494-.02089.90336l-1.21768.70764-1.12131-.64739c-.50853-.2936-.51115-.76033-.00594-1.05392l1.10109-.63988z" fill="#ecf0f1"/></g><g><path d="m49.11687 15.46042c.50853.2936.51115.76033.00594 1.05392l-1.11404.64741-1.2387-.71516c-.44332-.25595-.44567-.6775-.01819-.92593l1.23064-.71517z" fill="#ecf0f1"/></g><g><path d="m32.84453 6.06558-1.23063.71517c-.42748.24842-1.12921.26347-1.55948.01505l-1.26474-.7302 1.11405-.64741c.5052-.29359 1.31096-.2936 1.8195 0z" fill="#ecf0f1"/></g></g><g><path d="m33.10205 23.9045c.44043-.25597 1.14226-.25595 1.58558 0 .14337.08279.23404.18567.27829.29473.08498-.20888-.00833-.43377-.27829-.58963-.44332-.25597-1.14515-.25597-1.58558-.00002-.28547.16589-.38182.39467-.29579.60507.04602-.11304.14228-.22094.29579-.31015z" fill="#5b5e71"/><path d="m33.10722 24.52801c.41725.24089 1.11907.24091 1.55951-.01506.15546-.09035.25282-.19977.29919-.31371-.04425-.10906-.13491-.21195-.27829-.29473-.44332-.25595-1.14515-.25597-1.58558 0-.15351.08921-.24977.19711-.29579.31016.04671.1142.14499.22328.30096.31334z" fill="#3f434f"/></g><path d="m17.85272 13.21959-2.27294 1.32089-.51228.8414 3.35071-1.94722z" fill="#32a560"/><path d="m15.22921 14.74421v.54369l2.70614-1.57263v-.54515z" fill="#d4d6d6"/><g><path d="m16.01766 14.11879c.44043-.25597 1.14223-.25595 1.58556 0 .14364.08292.23598.18697.28216.29742.08892-.2141-.00756-.44715-.28216-.6057-.44332-.25595-1.14512-.25597-1.58556-.00002-.28849.16768-.38327.39948-.29234.61169.0472-.11053.14194-.21599.29234-.30339z" fill="#5b5e71"/><path d="m16.02283 14.72892c.41723.24089 1.13205.24841 1.57249-.00754.15058-.08751.24386-.19395.29006-.30516-.04617-.11045-.13852-.2145-.28216-.29742-.44332-.25595-1.14512-.25597-1.58556 0-.1504.0874-.24514.19286-.29234.3034.0479.11176.14458.21843.29751.30672z" fill="#3f434f"/></g><g><path d="m19.31995 31.64936c.4275-.24843 1.14226-.25595 1.58558 0 .1632.09422.26069.21625.29605.34458.05345-.19912-.04443-.40998-.29605-.55525-.44332-.25595-1.15808-.24843-1.58558 0-.26555.15432-.36716.36322-.31118.56102.03719-.12774.13943-.25055.31118-.35035z" fill="#5b5e71"/><path d="m19.32478 32.35712c.41722.24089 1.1321.24841 1.57253-.00754.16967-.09859.26873-.22461.30391-.35563-.03536-.12833-.13285-.25035-.29605-.34458-.44332-.25595-1.15808-.24843-1.58558 0-.17175.0998-.27399.2226-.31118.35035.03685.13025.14034.25577.31637.3574z" fill="#3f434f"/></g><g><path d="m2.77519 22.0972c.42748-.24843 1.14226-.25595 1.59863.00754.14948.0863.24001.1942.27802.30812.06414-.19624-.02422-.40395-.27802-.55048-.45637-.26349-1.17115-.25597-1.59863-.00754-.27072.15734-.37258.37148-.30613.57441.04096-.12138.14277-.23711.30613-.33205z" fill="#5b5e71"/><path d="m2.7934 22.7808c.41725.24089 1.10602.23334 1.54646-.0226.16743-.09731.27065-.21898.31197-.34534-.038-.11392-.12853-.22182-.27802-.30812-.45637-.26349-1.17115-.25597-1.59863-.00754-.16336.09494-.26517.21067-.30613.33204.04166.12721.14851.25004.32435.35156z" fill="#3f434f"/></g><g><path d="m46.67062 15.83964c.45339-.26349 1.15522-.26349 1.59854-.00754.1771.10224.27696.23605.30413.37593.10501-.22079.01151-.46165-.27005-.6242-.44332-.25595-1.14514-.25595-1.59854.00752-.24583.14286-.34887.34028-.31194.53112.04977-.10405.13957-.20248.27786-.28283z" fill="#5b5e71"/><path d="m46.7099 16.50977c.41722.24088 1.14505.24091 1.57253-.00752.14742-.08567.24026-.18782.29086-.29422-.02717-.13988-.12703-.2737-.30413-.37593-.44332-.25595-1.14515-.25595-1.59854.00754-.13829.08035-.22808.17878-.27786.28283.02728.14102.12875.27853.31714.3873z" fill="#3f434f"/></g><g><path d="m32.17551 6.45437v.5437l-.47086-.27185z" fill="#d4d6d6"/></g></g></g><g><g><g><path d="m35.43649 13.72149c0 .62227-.50238 1.12656-1.12466 1.12656-.40152 0-.75357-.20933-.95148-.52522-.11227-.17508-.17507-.38059-.17507-.60134 0-.62226.50429-1.12655 1.12655-1.12655.24168 0 .46622.07612.65082.20932.28735.20171.47384.53854.47384.91723z" fill="#d6b218"/><path d="m35.13772 13.4056c0 .62227-.50238 1.12655-1.12465 1.12655-.24358 0-.46813-.07611-.65273-.20932-.05137-.07993-.09325-.16746-.12178-.2588-.03425-.10847-.05329-.22266-.05329-.34254 0-.62226.50429-1.12655 1.12655-1.12655.15414 0 .30067.03044.43388.08754.07612.03235.15033.07231.21694.12178.11228.17508.17508.38059.17508.60134z" fill="#e5bd13"/><path d="m34.80089 13.02501c0 .62227-.50237 1.12655-1.12465 1.12655-.15414 0-.30257-.03235-.43768-.08753-.03425-.10847-.05329-.22266-.05329-.34254 0-.62226.50429-1.12655 1.12655-1.12655.15414 0 .30067.03044.43388.08754.03617.10847.05519.22264.05519.34253z" fill="#f1c40f"/><g opacity=".3"><path d="m33.39671 13.91868c-.0202-.07787-.0461-.15983-.05132-.24403-.00592-.0845.0057-.16982.02531-.25338.04391-.16604.13604-.32152.26503-.43841.1279-.11801.29045-.19716.46019-.22512.16925-.02921.34528-.00473.49274.06925-.32485-.04542-.64103.04722-.86302.25404-.11386.09987-.1977.23018-.2563.37177-.02531.07211-.0497.14673-.0591.22497-.0164.07811-.00431.15708-.01353.24091z" fill="#ecf0f1"/></g><circle cx="34.48" cy="14.118" fill="#c6a51a" r=".554"/><circle cx="34.48" cy="14.118" fill="#ecf0f1" r=".521"/><path d="m34.35983 13.78728.24016-.00006.00011.66082h-.10594v-.56157l-.13422.00006z"/></g><g><path d="m29.74329 18.07207c0 .62227-.50238 1.12656-1.12466 1.12656-.40152 0-.75357-.20933-.95148-.52522-.11227-.17508-.17507-.38059-.17507-.60134 0-.62226.50429-1.12655 1.12655-1.12655.24168 0 .46623.07612.65082.20932.28735.20171.47384.53854.47384.91723z" fill="#c14242"/><path d="m29.44452 17.75618c0 .62227-.50238 1.12655-1.12465 1.12655-.24359 0-.46813-.07611-.65273-.20932-.05137-.07993-.09324-.16746-.12178-.2588-.03425-.10847-.05329-.22266-.05329-.34254 0-.62226.50429-1.12655 1.12655-1.12655.15414 0 .30067.03044.43388.08754.07612.03235.15033.07231.21694.12178.11228.17508.17508.38059.17508.60134z" fill="#d8463f"/><path d="m29.10769 17.37559c0 .62227-.50237 1.12655-1.12465 1.12655-.15414 0-.30258-.03235-.43768-.08753-.03425-.10847-.05329-.22266-.05329-.34254 0-.62226.50429-1.12655 1.12655-1.12655.15414 0 .30067.03044.43388.08754.03617.10847.05519.22264.05519.34253z" fill="#e74c3c"/><g opacity=".3"><path d="m27.70351 18.26926c-.0202-.07787-.0461-.15983-.05131-.24403-.00592-.0845.0057-.16982.02531-.25338.04391-.16604.13604-.32152.26503-.43841.1279-.11802.29045-.19716.46019-.22512.16925-.02921.34528-.00473.49274.06925-.32485-.04542-.64103.04722-.86302.25404-.11386.09987-.19769.23018-.2563.37177-.02531.07211-.0497.14673-.0591.22497-.01641.07811-.00432.15708-.01354.24091z" fill="#ecf0f1"/></g><circle cx="28.787" cy="18.468" fill="#c14242" r=".554"/><circle cx="28.787" cy="18.468" fill="#ecf0f1" r=".521"/></g><g><path d="m36.9172 17.64278c0 .62227-.50238 1.12656-1.12466 1.12656-.40152 0-.75357-.20933-.95148-.52522-.11227-.17508-.17507-.38059-.17507-.60134 0-.62226.50429-1.12655 1.12655-1.12655.24168 0 .46623.07612.65082.20932.28736.20172.47384.53855.47384.91723z" fill="#77c6d8"/><path d="m36.61843 17.3269c0 .62227-.50238 1.12655-1.12465 1.12655-.24358 0-.46813-.07611-.65273-.20932-.11227-.17508-.17507-.38059-.17507-.60134 0-.62226.50429-1.12655 1.12655-1.12655.24168 0 .46623.07612.65082.20932.11229.17508.17508.38059.17508.60134z" fill="#84dbff"/><path d="m36.61843 17.3269c0 .62227-.50238 1.12655-1.12465 1.12655-.24358 0-.46813-.07611-.65273-.20932-.05137-.07993-.09324-.16746-.12178-.2588-.03425-.10847-.05329-.22265-.05329-.34254 0-.62226.50429-1.12655 1.12655-1.12655.15414 0 .30067.03044.43388.08754.07613.03235.15033.07231.21694.12178.11229.17508.17508.38059.17508.60134z" fill="#7ccfe8"/><g><path d="m36.28161 16.94631c0 .62227-.50237 1.12655-1.12465 1.12655-.15414 0-.30258-.03235-.43768-.08753-.03425-.10847-.05329-.22265-.05329-.34254 0-.62226.50429-1.12655 1.12655-1.12655.15414 0 .30067.03044.43388.08754.03616.10846.05519.22264.05519.34253z" fill="#84dbff"/></g><g opacity=".3"><path d="m34.88842 17.86125c-.0202-.07787-.0461-.15983-.05132-.24403-.00592-.0845.0057-.16982.02531-.25338.04391-.16605.13604-.32152.26503-.43841.1279-.11802.29045-.19716.46019-.22512.16925-.02921.34528-.00473.49274.06925-.32485-.04542-.64103.04722-.86302.25404-.11386.09987-.1977.23018-.25631.37177-.02531.07211-.0497.14673-.05909.22497-.0164.07812-.00431.15709-.01353.24091z" fill="#ecf0f1"/></g><circle cx="35.961" cy="18.039" fill="#6dbcc9" r=".554"/><circle cx="35.961" cy="18.039" fill="#ecf0f1" r=".51"/><path d="m36.14545 17.70425v.10115h-.27882v.16261c.0277-.01512.0592-.02268.09452-.02268.06174 0 .11506.01858.15984.0558.04466.03716.06705.08759.06705.15124 0 .06371-.02331.11645-.06993.1584-.04663.04189-.10398.06284-.17196.06284-.08886.00006-.15984-.02954-.21281-.08881l.05955-.0813c.00508.00508.01189.01102.02031.01795.00854.00698.02608.01627.05251.02793.02643.0116.05539.01743.08702.01743.03151 0 .06013-.00946.08598-.02839s.03878-.04645.03878-.08269-.01374-.06434-.0412-.08419c-.02735-.01985-.06197-.02977-.10398-.02977-.04189 0-.08171.0105-.11956.03127l-.0472-.05107-.00011-.31766z"/></g><g><path d="m29.80202 12.99069c0 .62227-.50239 1.12656-1.12466 1.12656-.40152 0-.75356-.20933-.95148-.52522-.11227-.17508-.17507-.38059-.17507-.60134 0-.62226.50429-1.12655 1.12655-1.12655.24168 0 .46623.07612.65082.20932.28735.20172.47384.53854.47384.91723z" fill="#7d5193"/><path d="m29.50325 12.6748c0 .62227-.50238 1.12655-1.12465 1.12655-.24359 0-.46813-.07611-.65273-.20932-.05137-.07993-.09324-.16746-.12178-.2588-.03425-.10847-.05329-.22265-.05329-.34254 0-.62226.50429-1.12655 1.12655-1.12655.15414 0 .30067.03044.43388.08754.07612.03235.15033.07231.21694.12178.11228.17508.17508.38059.17508.60134z" fill="#8c56a5"/><path d="m29.16642 12.29421c0 .62227-.50237 1.12655-1.12465 1.12655-.15414 0-.30258-.03235-.43768-.08753-.03425-.10847-.05329-.22265-.05329-.34254 0-.62226.50429-1.12655 1.12655-1.12655.15414 0 .30067.03044.43388.08754.03617.10847.05519.22264.05519.34253z" fill="#9b59b6"/><g opacity=".3"><path d="m27.77323 13.20916c-.0202-.07787-.0461-.15983-.05131-.24403-.00592-.0845.0057-.16982.02531-.25338.04391-.16604.13604-.32152.26503-.43841.1279-.11801.29045-.19716.46019-.22512.16925-.02921.34528-.00473.49274.06925-.32485-.04542-.64103.04722-.86302.25404-.11386.09987-.19769.23018-.2563.37177-.02531.07211-.0497.14673-.0591.22497-.01641.07811-.00432.15708-.01354.24091z" fill="#ecf0f1"/></g><circle cx="28.846" cy="13.387" fill="#76508c" r=".554"/><circle cx="28.846" cy="13.387" fill="#ecf0f1" r=".512"/><path d="m28.65358 13.1515-.00012-.09925.38662-.00006v.08696l-.15961.17865c.06047.0019.10768.021.14172.05724.03405.03624.05113.07957.05113.13001 0 .0674-.02285.12037-.06855.1588s-.10444.05765-.17623.05765c-.0719 0-.14218-.02291-.21085-.06896l.0472-.08979c.05424.0378.1109.05667.17023.05667.03843 0 .07005-.009.09498-.02695.02481-.01795.03728-.0438.03728-.0775 0-.03376-.01385-.0607-.04155-.08084-.0277-.0202-.06613-.03029-.11529-.03029-.02458 0-.04824.00352-.07098.01044v-.08511l.15315-.17773z"/></g></g><g><path d="m28.60206 18.36368v-.17724h.43377v.09258l-.26099.52382h-.11459l.25481-.52204h-.21869v.08289h-.09431z"/></g></g></g><path d="m7.82319 21.29199 17.34177-4.85542c.0224-.00627.04564.00681.05191.02921.00612.02187-.00627.04457-.02771.05147l-17.15046 5.49311c-.19727.06317-.4084-.04552-.47159-.2428-.06319-.19727.04552-.4084.24278-.47159.00393-.00125.00936-.00287.0133-.00398z" fill="#f1c40f"/><path d="m12.90844 19.86819-5.08527 1.42379c-.00391.0011-.00934.00275-.01324.00397-.19727.06323-.30597.27435-.2428.47162s.27429.30597.47156.2428l5.03186-1.61163z" fill="#5b5e71"/></g><path d="m29.47989 6.46459.20383-.12041.19415.42953-.39798.23263z" fill="#d4d6d6"/><path d="m32.17808 6.45216v.55005l-.47003-.28003-.06-.52002z" fill="#d4d6d6"/><path d="m29.98907 6.28395c.45334-.2635 1.15522-.2635 1.61155 0 .12365.07142.19744.1583.24555.24979.09822-.21103.0278-.43539-.24555-.59319-.45633-.2635-1.15821-.2635-1.61155 0-.28631.1664-.36733.40547-.26462.62547.04961-.10345.12726-.2023.26462-.28207z" fill="#5b5e71"/><path d="m30.00727 6.86654c.41719.24082 1.11895.22573 1.54648-.02269.15631-.09087.24082-.19906.29242-.31012-.04811-.09149-.1219-.17837-.24555-.24979-.45633-.2635-1.15821-.2635-1.61155 0-.13736.07977-.21501.17862-.26462.28207.0506.10846.13212.21353.28282.30053z" fill="#3f434f"/></g></svg>