<svg id="Layer_1" enable-background="new 0 0 712.565 247.825" height="512" viewBox="0 0 712.565 247.825" width="512" xmlns="http://www.w3.org/2000/svg"><g><g><path d="m357.317 126.015c9.302 0 18.12 2.106 26.012 5.854v-43.453c6.877 1.979 17.119 5.527 25.852 8.902.94.363 1.916.538 2.882.538 2.487 0 4.9-1.163 6.442-3.255l23.333-31.667c2.621-3.557 1.862-8.565-1.695-11.186-.024-.018-.05-.032-.074-.049l24.165-50.403-2.706-1.296-24.18 50.433c-3.056-.768-6.407.318-8.391 3.011l-19.735 26.784c-9.848-3.648-26.389-9.387-32.979-9.387-.212-.018-.426-.032-.642-.032h-38.635c-.217 0-.431.015-.643.032-10.115.002-21.075 10.942-27.923 19.224l-25.11-14.771c-2.802-1.648-6.192-1.389-8.682.375l-35.578-43.535-2.323 1.898 35.814 43.824c-.06.093-.126.181-.183.277-2.24 3.808-.969 8.711 2.839 10.952l31.166 18.333c1.271.747 2.668 1.105 4.051 1.105 2.479 0 4.91-1.151 6.467-3.282 3.772-5.166 8.432-10.26 12.378-13.777v34.131l8.339 3.726c6.192-2.131 12.829-3.306 19.739-3.306z"/><circle cx="356.282" cy="42.61" r="22.5"/><path d="m227.948 227.264-20.844 17.08 2.536 3.094 20.315-16.647 20.293 16.629 2.535-3.094-20.835-17.073v-30.482l-4-1.327z"/><path d="m257.197 201.363 2.451-7.384-2.974-.987 8.128-24.486-20.845-9.316 4.261-9.534-31.829-10.565-2.451 7.383 2.974.987-.026.078 14.331 4.905-.972 2.839-14.304-4.897-8.696 26.199-2.974-.987-2.451 7.384z"/><path d="m283.69 221.132-27.855 22.826 3.17 3.867 27.194-22.284 27.164 22.259 3.17-3.867-27.843-22.816v-41.935l-5-2.235z"/><path d="m252.357 148.483-4.04 9.041 48.652 21.743c2.713-21.699 16.886-39.882 36.263-48.269l-60.899-27.216-4.04 9.041 3.054 1.365 35.692 14.69-1.142 2.774-35.18-14.479-14.72 32.938z"/><path d="m413.432 114.818c13.275-6.31 26.583-6.803 31.957-1.646-.126-.606-.313-1.194-.579-1.755-3.569-7.508-18.634-7.808-33.65-.67-13.877 6.597-22.846 17.234-21.311 24.736.724.46 1.44.933 2.143 1.423.679-7.202 9.128-16.235 21.44-22.088z"/><path d="m447.271 120.032c-3.569-7.508-18.635-7.808-33.65-.67-10.263 4.879-17.843 11.969-20.475 18.366 5.309 3.883 9.962 8.605 13.775 13.969 4.065-.111 8.675-.984 13.447-2.625v73.532l-26.531 21.741 2.535 3.094 26.005-21.309 25.975 21.285 2.535-3.094-26.519-21.731v-75.061c.725-.311 1.452-.633 2.178-.978 14.39-6.84 23.503-18.026 21.098-25.555-.106-.328-.224-.651-.373-.964z"/><path d="m301.275 186.852c0 30.951 25.091 56.042 56.042 56.042s56.042-25.091 56.042-56.042-25.091-56.042-56.042-56.042c-30.952 0-56.042 25.091-56.042 56.042zm72.551 24.222-16.51-8.68-16.51 8.68 3.153-18.384-13.357-13.019 18.458-2.682 8.255-16.726 8.255 16.726 18.458 2.682-13.356 13.019z"/><path d="m474.971 227.253-20.835 17.073 2.535 3.094 20.293-16.629 20.315 16.647 2.535-3.094-20.843-17.08v-31.82l-4 1.327z"/><path d="m437.604 164.855 2.974-.987 9.667 29.124-2.974.987 2.45 7.384 55.378-18.381-2.451-7.384-2.974.987-8.696-26.199-14.304 4.897-.972-2.839 14.331-4.905-.026-.078 2.973-.987-2.45-7.383-55.377 18.381z"/></g><g><path d="m636.856 235.503c.057-1.08-.016-2.183-.261-3.29l-22.182-100.436c-1.437 2.891-3.467 5.417-6.338 7.059-3.305 1.891-6.205 3.045-9.126 3.63-6.434 1.289-12.56-.322-21.615-3.748-1.64-.621-3.139-.782-4.582-.493-2.639.529-5.115 2.537-7.983 4.862-1.461 1.185-3.057 2.478-4.857 3.708l.255.067 5.802 29.818-26.451 52.677c-3.036 6.046-.596 13.409 5.45 16.444 1.764.886 3.64 1.306 5.487 1.305 4.486 0 8.807-2.473 10.957-6.755l28.326-56.411c1.216-2.421 1.595-5.177 1.077-7.837l-4.337-22.289 8.187 2.163 18.004 81.519c1.263 5.717 6.328 9.61 11.95 9.61.875 0 1.764-.094 2.653-.291.996-.22 1.928-.567 2.802-1.001l-.826-.65z"/><path d="m663.536 135.45c.154.071.314.133.474.194.117.045.233.095.351.134.017.006.033.014.051.019.037.012.075.015.112.027.328.102.658.179.99.237.083.015.166.03.25.042.083.012.166.032.249.041v-23.44c-1.848.925-3.34 2.559-4.028 4.679l-1.999 6.152-2.098-.985 1.224-3.767-28.023 1.189 32.351 15.437c.03.017.063.026.096.041z"/><path d="m615.007 107.038c-.703-5.908-2.84-14.769-9.315-18.042-10.064-5.087-16.393-3.65-28.732 1.763-.41.18-.81.33-1.203.459l5.634 13.145c1.322-.679 2.807-1.09 4.393-1.131 5.64-.146 10.33 4.307 10.476 9.947s-4.307 10.33-9.947 10.476c-2.635.068-5.056-.877-6.91-2.469-.508.337-1.048.64-1.628.888-1.292.554-2.655.834-4.054.834-4.127 0-7.845-2.451-9.472-6.244l-15.762-36.779c-2.398-.536-5.072-.764-8.112-.521-23.254 1.857-22.264 25.334-21.992 35.833.272 10.498.499 33.995 23.818 34.646 19.926.556 23.344-18.041 35.946-13.274s18.998 5.875 28.784.273c6.296-3.604 7.972-12.564 8.368-18.5l44.579-1.892c1.035-2.956 3.311-5.206 6.133-6.249v-3.641zm-72.974 21.552-.725-27.995 3.817-.099.725 27.995z"/><path d="m683.289 115.489.264.005 5.141.09.063 2.43-1.167.03.04 1.527 3.69-.096-.04-1.527-1.167.03-.061-2.371 5.76.101.065 2.503-1.167.03.04 1.527 3.69-.096-.04-1.527-1.167.03-.063-2.444 5.76.101.067 2.576-1.167.03.04 1.527 3.69-.096-.04-1.527-1.167.03-.065-2.517 5.881.103 2.396-5.792-2.693-5.66-5.868.407-.065-2.517 1.167-.03-.04-1.527-3.69.096.04 1.527 1.167-.03.067 2.576-5.748.399-.063-2.444 1.167-.03-.04-1.527-3.69.096.04 1.527 1.167-.03.065 2.503-5.747.399-.062-2.371 1.167-.03-.04-1.527-3.69.096.04 1.527 1.167-.03.063 2.43-5.131.356-.262.018zm6.889-2.037c-.491.013-.903-.379-.916-.87s.379-.903.87-.916l12.704-.329c.491-.013.903.379.916.87s-.379.903-.87.916zm12.563-5.737c.491-.013.903.379.916.87s-.379.903-.87.916l-12.704.329c-.491.013-.903-.379-.916-.87s.379-.903.87-.916z"/><path d="m547.614 72.008 18.75 43.75c1.301 3.033 4.253 4.851 7.357 4.851 1.051 0 2.12-.208 3.147-.648 4.061-1.741 5.942-6.443 4.202-10.505l-16.41-38.291c3.383-2.515 7.735-5.129 11.634-6.117l1.246 2.077c-1.488.295-3.219.943-5.082 1.875l-2.374 8.984 4.76 11.106c.391-.119.788-.259 1.192-.437 4.282-1.878 8.823-3.733 13.028-4.575 6.022-1.206 11.306-.35 17.666 2.866 6.531 3.302 9.206 11.11 10.275 17.776l1.968-.018 2.187-8.276 2.339 8.233 16.589-.156-11.175-39.333c-.508-1.787-1.588-3.252-2.981-4.268-.818-.794-1.803-1.387-2.934-1.685l-1.884-.498c-3.924 2.591-8.604 4.105-13.62 4.105-.93 0-1.873-.053-2.804-.158-8.57-.965-15.633-6.216-19.3-13.37-.432-.096-.866-.157-1.299-.164-5.56-1.145-11.163-.078-16.207 1.9-9.656 3.787-17.248 10.883-18.48 12.075-2.385 2.309-3.097 5.85-1.79 8.901z"/><path d="m669.012 199.497-35.548 45.167 2.357 1.855 33.19-42.172v42.161h3v-42.161l33.19 42.172 2.357-1.855-35.547-45.167v-55.342-9.824c.092-.076.171-.168.26-.249.123-.112.244-.225.36-.346.158-.163.304-.337.449-.516.113-.138.225-.275.329-.421.128-.181.24-.375.354-.569.094-.161.193-.317.277-.486.019-.038.044-.071.062-.109.141-.295.256-.596.358-.899.009-.026.023-.049.031-.075l.089-.274 2.619-8.059c1.365-4.202-.934-8.716-5.136-10.081-.018-.006-.036-.009-.053-.014v-2.389c.256.062.511.134.763.216 2.617.851 4.746 2.669 5.995 5.12.076.15.137.305.206.458l2.277-.097-.236-9.123-9.005.084v-2.3-6.092-10.24l-3-1.865v.597 112.895z"/><path d="m681.584 90.803 3.806-6.123-25.175-15.647c-.192 1.188-.615 2.358-1.289 3.443s-1.536 1.982-2.516 2.681z"/><path d="m657.005 71.282c2.078-3.343 1.052-7.738-2.291-9.816-3.344-2.078-7.738-1.052-9.816 2.291s-1.052 7.738 2.291 9.816 7.738 1.052 9.816-2.291z"/><ellipse cx="607.466" cy="38.022" rx="22.5" ry="22.5" transform="matrix(.453 -.892 .892 .453 298.398 562.367)"/></g><g><path d="m146.596 176.682 5.802-29.819.255-.067c-1.8-1.229-3.396-2.523-4.857-3.708-2.868-2.325-5.344-4.333-7.983-4.862-1.443-.289-2.941-.128-4.582.493-9.055 3.426-15.182 5.037-21.615 3.748-2.922-.585-5.821-1.739-9.126-3.63-2.87-1.643-4.901-4.168-6.337-7.059l-22.182 100.436c-.245 1.107-.318 2.21-.261 3.29l7.605 9.663-.826.65c.874.434 1.806.781 2.802 1.001.89.196 1.778.291 2.653.291 5.622 0 10.688-3.894 11.95-9.61l18.004-81.519 8.187-2.163-4.337 22.289c-.518 2.66-.139 5.416 1.077 7.837l28.325 56.411c2.15 4.282 6.471 6.756 10.957 6.755 1.848 0 3.724-.419 5.487-1.305 6.046-3.036 8.486-10.398 5.45-16.444z"/><path d="m91.405 96.426 2.186 8.275 1.968.018c1.068-6.666 3.744-14.474 10.275-17.776 6.36-3.216 11.644-4.073 17.666-2.866 4.204.842 8.746 2.697 13.028 4.575.404.177.801.317 1.192.437l4.76-11.106-2.374-8.984c-1.864-.932-3.595-1.579-5.082-1.875l1.246-2.077c3.9.988 8.251 3.602 11.635 6.117l-16.41 38.291c-1.74 4.062.142 8.764 4.202 10.505 1.027.44 2.097.648 3.147.648 3.104 0 6.057-1.817 7.357-4.851l18.75-43.75c1.307-3.051.595-6.592-1.79-8.9-1.232-1.192-8.824-8.288-18.48-12.075-5.043-1.978-10.647-3.045-16.207-1.9-.433.007-.867.068-1.299.164-3.667 7.154-10.73 12.405-19.3 13.37-.931.105-1.874.158-2.804.158-5.016 0-9.696-1.514-13.62-4.105l-1.884.498c-1.126.298-2.109.887-2.925 1.676-1.397 1.016-2.481 2.485-2.99 4.277l-11.175 39.333 16.589.156z"/><path d="m52.686 116.449 44.579 1.892c.396 5.936 2.072 14.896 8.368 18.5 9.787 5.602 16.182 4.494 28.784-.273s16.021 13.83 35.946 13.274c23.319-.651 23.546-24.148 23.818-34.646s1.262-33.975-21.992-35.833c-3.04-.243-5.713-.014-8.112.521l-15.762 36.779c-1.627 3.793-5.345 6.244-9.472 6.244-1.398 0-2.762-.28-4.054-.834-.58-.249-1.119-.551-1.628-.888-1.854 1.592-4.274 2.537-6.91 2.469-5.64-.146-10.093-4.836-9.947-10.476s4.837-10.093 10.476-9.947c1.585.041 3.071.451 4.392 1.131l5.634-13.145c-.393-.129-.793-.279-1.203-.459-12.338-5.413-18.668-6.85-28.732-1.763-6.474 3.273-8.612 12.134-9.314 18.042l-51.005-.478v3.641c2.823 1.043 5.098 3.293 6.134 6.249zm114.754-15.952 3.818.099-.725 27.995-3.817-.099z"/><path d="m29.512 106.366-.262-.018-5.131-.356.063-2.43 1.167.03.04-1.527-3.69-.096-.04 1.527 1.167.03-.061 2.371-5.748-.399.065-2.503 1.167.03.04-1.527-3.69-.096-.04 1.527 1.167.03-.063 2.444-5.748-.399.067-2.576 1.167.03.04-1.527-3.69-.096-.04 1.527 1.167.03-.065 2.517-5.868-.407-2.693 5.664 2.396 5.792 5.881-.103-.065 2.517-1.167-.03-.04 1.527 3.69.096.04-1.527-1.167-.03.067-2.576 5.76-.101-.063 2.444-1.167-.03-.04 1.527 3.69.096.04-1.527-1.167-.03.065-2.503 5.76-.101-.061 2.371-1.167-.03-.04 1.527 3.69.096.04-1.527-1.167-.03.063-2.43 5.141-.09.264-.005zm-6.115 2.594c-.013.491-.425.882-.916.87l-12.704-.329c-.491-.013-.882-.425-.87-.916.013-.491.425-.882.916-.87l12.704.329c.491.013.883.425.87.916zm-13.714 4.163c-.491-.013-.882-.425-.87-.916.013-.491.425-.882.916-.87l12.704.329c.491.013.882.425.87.916-.013.491-.425.882-.916.87z"/><path d="m47.055 136.061c.328-.057.654-.134.978-.234.04-.012.08-.016.12-.029.018-.006.035-.014.054-.021.113-.038.224-.085.336-.128.165-.063.33-.127.489-.2.031-.014.063-.024.094-.038l32.352-15.437-28.023-1.189 1.224 3.767-2.098.985-1.999-6.152c-.689-2.12-2.18-3.754-4.028-4.679v23.44c.082-.009.164-.029.246-.041.084-.013.169-.029.255-.044z"/><path d="m5.006 244.664 2.357 1.855 33.19-42.172v42.161h3v-42.161l33.19 42.172 2.357-1.855-35.548-45.167v-112.894-.597l-3 1.864v10.24 6.092 2.3l-9.005-.084-.236 9.123 2.277.097c.069-.153.129-.308.206-.458 1.249-2.451 3.378-4.27 5.995-5.12.252-.082.507-.153.763-.216v2.389c-.018.006-.036.009-.054.014-4.202 1.365-6.501 5.879-5.136 10.081l2.619 8.059.089.274c.008.024.021.045.029.069.102.304.218.607.36.904.019.04.045.074.065.113.081.163.176.314.267.469.117.201.234.4.366.587.1.141.209.273.318.407.149.184.3.363.462.531.112.116.228.224.347.333.091.084.174.179.268.258v9.822 55.342z"/><path d="m56.156 75.156c-.98-.699-1.842-1.596-2.516-2.681-.674-1.084-1.097-2.254-1.289-3.443l-25.176 15.647 3.806 6.123z"/><ellipse cx="61.614" cy="67.519" rx="7.128" ry="7.128" transform="matrix(.227 -.974 .974 .227 -18.144 112.173)"/><ellipse cx="105.099" cy="38.022" rx="22.5" ry="22.5" transform="matrix(.966 -.26 .26 .966 -6.27 28.622)"/></g></g></svg>